<svg viewBox="0 0 512 512" xmlns="http://www.w3.org/2000/svg"><path d="m408 40h64v104h-64z" fill="#99261e"/><path d="m324.2 110.2h-1.2c-11.2 6.4-23.1 11.2-35.6 14.1-21 5-42.2 4.9-63.6-.2-12.2-3-23.9-7.7-34.8-13.9h-1.2l68.2 78z" fill="#99261e"/><path d="m376 8v45.4c-1.5 1-3 2.2-4.3 3.6l-25.8 25.8c-10.9 10.9-23.6 19.6-37.6 25.9 7.3-10.4 11.6-23 11.6-36.6 0-35.3-28.7-64-64-64s-64 28.7-64 64c0 13.6 4.3 26.2 11.6 36.6-13.9-6.3-26.7-15-37.6-25.9l-25.6-25.8c-5.8-5.8-13.5-9-21.6-9-17 0-30.7 13.7-30.7 30.6v1.8c0 6.6 2.2 13.1 6.1 18.4l8.9 11.8c22.7 30.2 49.9 56.3 81 77.6v59.8h-88v16h320v-16h-88v-59.8c17.2-11.8 33.2-25.1 48-39.7v35.5h128v-176zm-120 16c26.5 0 48 21.5 48 48 0 24.6-18.6 44.9-42.5 47.7-3.7.2-7.4.1-11.1 0-23.9-2.9-42.4-23.1-42.4-47.7 0-26.5 21.5-48 48-48zm59.6 153.3-3.6 2.4v68.3h-112v-68.3l-3.6-2.4c-31.1-20.7-58.2-46.4-80.7-76.3l-8.9-11.8c-1.9-2.5-2.9-5.6-2.9-8.8v-1.8c0-8.1 6.6-14.6 14.6-14.6 3.9 0 7.6 1.5 10.3 4.3l25.8 25.8c18.5 18.5 41.7 31.6 67.2 37.8 11.2 2.6 22.3 4 33.3 4.1h.7.9c10.9 0 21.7-1.3 32.4-3.9 25.8-6.2 49.3-19.3 68-38l18.9-18.8v50c-18 19.7-38.3 37.3-60.4 52zm172.4-9.3h-96v-144h96z"/><path d="m449.3 398.6c18.4-11.3 30.7-31.5 30.7-54.6 0-35.3-28.7-64-64-64s-64 28.7-64 64c0 23.1 12.3 43.3 30.7 54.6-20.7 8.5-37.5 24.7-46.7 45-9.3-20.3-26-36.5-46.7-45 18.4-11.3 30.7-31.5 30.7-54.6 0-35.3-28.7-64-64-64s-64 28.7-64 64c0 23.1 12.3 43.3 30.7 54.6-20.7 8.5-37.5 24.7-46.7 45-9.3-20.3-26-36.5-46.7-45 18.4-11.3 30.7-31.5 30.7-54.6 0-35.3-28.7-64-64-64s-64 28.7-64 64c0 23.1 12.3 43.3 30.7 54.6-32 13.1-54.7 44.6-54.7 81.4v24h160 16 144 16 160v-24c0-36.8-22.7-68.3-54.7-81.4zm-81.3-54.6c0-26.5 21.5-48 48-48s48 21.5 48 48-21.5 48-48 48-48-21.5-48-48zm-160 0c0-26.5 21.5-48 48-48s48 21.5 48 48-21.5 48-48 48-48-21.5-48-48zm-160 0c0-26.5 21.5-48 48-48s48 21.5 48 48-21.5 48-48 48-48-21.5-48-48zm120 144h-24v-32h-16v32h-64v-32h-16v32h-24v-8c0-39.7 32.3-72 72-72s72 32.3 72 72zm160 0h-24v-32h-16v32h-64v-32h-16v32h-24v-8c0-39.7 32.3-72 72-72s72 32.3 72 72zm160 0h-24v-32h-16v32h-64v-32h-16v32h-24v-8c0-39.7 32.3-72 72-72s72 32.3 72 72z"/><path d="m408 40h64v16h-64z"/><path d="m408 72h64v16h-64z"/><path d="m408 104h64v16h-64z"/><path d="m408 136h64v16h-64z"/><path d="m248 208h16v16h-16z"/></svg>