<svg enable-background="new 0 0 496 496" viewBox="0 0 496 496" xmlns="http://www.w3.org/2000/svg"><path d="m464 136h-80v-64h51.312l28.688 28.687z" fill="#b22117"/><path d="m451.312 40h-83.312v-16c0-13.23-10.77-24-24-24h-208c-13.23 0-24 10.77-24 24v145.602h16v-145.602c0-4.406 3.594-8 8-8h208c4.406 0 8 3.594 8 8v168h-80.246c-6.664-4.961-14.832-8-23.754-8-22.055 0-40 17.945-40 40s17.945 40 40 40c16.359 0 30.414-9.895 36.609-24h102.781c6.195 14.105 20.25 24 36.609 24s30.414-9.895 36.609-24h11.392c13.23 0 24-10.77 24-24v-131.313zm-83.312 16h76.688l35.312 35.312v100.688h-32.246c-6.664-4.961-14.832-8-23.754-8s-17.09 3.039-23.754 8h-32.246zm-120 192c-13.23 0-24-10.77-24-24s10.77-24 24-24 24 10.77 24 24-10.77 24-24 24zm36.609-40h67.391v16h-64c0-5.695-1.23-11.09-3.391-16zm83.391 16v-16h19.391c-2.16 4.91-3.391 10.305-3.391 16zm56 24c-13.23 0-24-10.77-24-24s10.77-24 24-24 24 10.77 24 24-10.77 24-24 24zm48-24h-8c0-5.695-1.23-11.09-3.391-16h19.391v8c0 4.406-3.594 8-8 8z"/><path d="m432 224c0 4.418-3.582 8-8 8s-8-3.582-8-8 3.582-8 8-8 8 3.582 8 8z"/><path d="m256 224c0 4.418-3.582 8-8 8s-8-3.582-8-8 3.582-8 8-8 8 3.582 8 8z"/><path d="m336 32h-192v144h192zm-112 16h32v16h-32zm32 112h-32v-16h32zm64 0h-48v-32h-64v32h-48v-112h48v32h64v-32h48z"/><path d="m136 160c-48.52 0-88 39.48-88 88v48h8c0-13.258 10.742-24 24-24v1.887c0-10.957 6.191-20.984 16-25.887 20.77 15.574 46.031 24 72 24h24c13.258 0 24 10.742 24 24h8v-48c0-48.52-39.48-88-88-88z" fill="#b22117"/><path d="m384 496c-61.762 0-112-50.238-112-112s50.238-112 112-112 112 50.238 112 112-50.238 112-112 112z" fill="#b22117"/><path d="m370.305 460.09-47.305-37.844 10-12.492 32.695 26.156 59.359-103.879 13.891 7.938z"/><path d="m241 402.48-73-16.84v-18.297c14.801-8.59 25.824-22.93 30.047-39.953 14.762-2.847 25.953-15.816 25.953-31.39 0-14.863-10.238-27.289-24-30.863v-17.137h-16v16h-16c-24.07 0-47.938-7.961-67.199-22.398l-3.961-2.969-4.426 2.207c-9.789 4.895-16.637 13.656-19.23 23.922-14.368 3.14-25.184 15.933-25.184 31.238 0 15.574 11.191 28.543 25.953 31.391 4.223 17.023 15.246 31.363 30.047 39.953v18.297l-72.992 16.84c-18.254 4.207-31.008 20.238-31.008 38.976v54.543h272v-54.543c0-18.738-12.754-34.769-31-38.977zm-33-106.48c0 5.895-3.238 11-8 13.777v-27.555c4.762 2.778 8 7.883 8 13.778zm-144 0c0-5.895 3.238-11 8-13.777v27.555c-4.762-2.778-8-7.883-8-13.778zm24 16v-38.113c0-6.422 2.871-12.328 7.719-16.246 21.168 14.457 46.625 22.359 72.281 22.359h16v32c0 26.473-21.527 48-48 48s-48-21.527-48-48zm48 64c5.535 0 10.871-.777 16-2.105v15.441l-16 21.336-16-21.336v-15.441c5.129 1.328 10.465 2.105 16 2.105zm120 104h-48v-32h-16v32h-112v-32h-16v32h-48v-38.543c0-11.242 7.648-20.855 18.609-23.387l74.117-17.109 27.274 36.375 27.273-36.367 74.117 17.109c10.962 2.524 18.61 12.137 18.61 23.379z"/></svg>