<svg enable-background="new 0 0 512 512" viewBox="0 0 512 512" xmlns="http://www.w3.org/2000/svg"><path d="m392 192h16c0-17.648-14.352-32-32-32v16c8.824 0 16 7.176 16 16z"/><path d="m312 344v16c17.648 0 32-14.352 32-32h-16c0 8.824-7.176 16-16 16z"/><path d="m104 192h16c0-8.824 7.176-16 16-16v-16c-17.648 0-32 14.352-32 32z"/><path d="m280 288h-16c0 17.648 14.352 32 32 32v-16c-8.824 0-16-7.176-16-16z"/><path d="m232 192h-16c0 17.648 14.352 32 32 32v-16c-8.824 0-16-7.176-16-16z"/><path d="m296 128h16c0-17.648-14.352-32-32-32v16c8.824 0 16 7.176 16 16z"/><path d="m288 184v16c17.648 0 32-14.352 32-32h-16c0 8.824-7.176 16-16 16z"/><path d="m200 344v16c17.648 0 32-14.352 32-32h-16c0 8.824-7.176 16-16 16z"/><path d="m411.312 384-32-32h-8.024c3.016-7.416 4.712-15.512 4.712-24 0-.24-.048-.48-.048-.72 19.568-11.36 32.048-32.416 32.048-55.28 0-7.912-1.512-15.464-4.144-22.464 21.896-10.56 36.144-32.656 36.144-57.536 0-20.824-10.048-39.304-25.496-51 .888-4.272 1.496-8.6 1.496-13 0-26.864-16.656-49.872-40.168-59.352-1.76-33.728-29.672-60.648-63.832-60.648-24.08 0-45.08 13.384-56 33.088-10.92-19.704-31.92-33.088-56-33.088-34.16 0-62.072 26.92-63.832 60.648-23.512 9.48-40.168 32.488-40.168 59.352 0 4.4.608 8.728 1.496 13-15.448 11.696-25.496 30.176-25.496 51 0 24.88 14.248 46.976 36.144 57.536-2.632 7-4.144 14.552-4.144 22.464 0 22.864 12.48 43.92 32.048 55.28 0 .24-.048.48-.048.72 0 8.488 1.696 16.584 4.712 24h-8.024l-32 32h-24l-52.688 52.688v27.312h16v-20.688l43.312-43.312h24l32-32h10.808c4.944 6.16 11.016 11.352 17.88 15.344v13.344l-19.312 19.312h-32l-28.688 28.688v19.312h16v-12.688l19.312-19.312h32l28.688-28.688v-13.416c5.128 1.328 10.464 2.104 16 2.104v36.688l-37.656 37.656 11.312 11.312 42.344-42.344v-45.416c17.176-4.448 31.584-15.8 40-30.976 8.416 15.176 22.824 26.536 40 30.976v45.416l42.344 42.344 11.312-11.312-37.656-37.656v-36.688c5.536 0 10.872-.776 16-2.104v13.416l28.688 28.688h32l19.312 19.312v12.688h16v-19.312l-28.688-28.688h-32l-19.312-19.312v-13.344c6.864-3.984 12.936-9.184 17.88-15.344h10.808l32 32h24l43.312 43.312v20.688h16v-27.312l-52.688-52.688zm-99.312-8c-26.472 0-48-21.528-48-48h-16c0 26.472-21.528 48-48 48s-48-21.528-48-48c0-18.44 10.28-34.952 26.832-43.096l-7.064-14.36c-16.424 8.08-28.192 22.352-33.152 39.256-11.504-8.984-18.616-22.872-18.616-37.8 0-26.472 21.528-48 48-48s48 21.528 48 48h16c0-35.288-28.712-64-64-64-21.664 0-40.808 10.84-52.392 27.36-16.704-7.824-27.608-24.512-27.608-43.36 0-26.472 21.528-48 48-48 12.872 0 24.96 5.032 34.048 14.168l11.344-11.28c-12.112-12.184-28.224-18.888-45.392-18.888-8.36 0-16.328 1.656-23.664 4.584-.144-1.52-.336-3.04-.336-4.584 0-26.472 21.528-48 48-48 8.664 0 17.16 2.336 24.544 6.744l8.2-13.744c-9.872-5.888-21.192-9-32.744-9-2.488 0-4.936.176-7.344.456 3.632-22.888 23.448-40.456 47.344-40.456 26.472 0 48 21.528 48 48h16c0-26.472 21.528-48 48-48 23.896 0 43.712 17.568 47.344 40.456-2.408-.28-4.856-.456-7.344-.456-11.552 0-22.872 3.112-32.752 9l8.2 13.744c7.392-4.408 15.888-6.744 24.552-6.744 26.472 0 48 21.528 48 48 0 1.544-.192 3.064-.336 4.584-7.336-2.928-15.304-4.584-23.664-4.584-17.168 0-33.28 6.704-45.392 18.88l11.344 11.28c9.088-9.128 21.176-14.16 34.048-14.16 26.472 0 48 21.528 48 48 0 18.848-10.904 35.536-27.608 43.36-11.584-16.52-30.728-27.36-52.392-27.36-35.288 0-64 28.712-64 64h16c0-26.472 21.528-48 48-48s48 21.528 48 48c0 14.928-7.112 28.816-18.624 37.808-4.96-16.904-16.728-31.176-33.152-39.256l-7.064 14.36c16.56 8.136 26.84 24.648 26.84 43.088 0 26.472-21.528 48-48 48z"/><path d="m440 264h16v16h-16z"/><path d="m440 296h16v16h-16z"/><path d="m456 280h16v16h-16z"/><path d="m424 280h16v16h-16z"/><path d="m424 8h16v16h-16z"/><path d="m424 40h16v16h-16z"/><path d="m440 24h16v16h-16z"/><path d="m408 24h16v16h-16z"/><path d="m472 96h16v16h-16z"/><path d="m472 128h16v16h-16z"/><path d="m488 112h16v16h-16z"/><path d="m456 112h16v16h-16z"/><path d="m56 264h16v16h-16z"/><path d="m56 296h16v16h-16z"/><path d="m40 280h16v16h-16z"/><path d="m72 280h16v16h-16z"/><path d="m72 8h16v16h-16z"/><path d="m72 40h16v16h-16z"/><path d="m56 24h16v16h-16z"/><path d="m88 24h16v16h-16z"/><path d="m24 96h16v16h-16z"/><path d="m24 128h16v16h-16z"/><path d="m8 112h16v16h-16z"/><path d="m40 112h16v16h-16z"/><g fill="#b22117"><path d="m160 504c-13.232 0-24-10.768-24-24s10.768-24 24-24 24 10.768 24 24-10.768 24-24 24z"/><path d="m96 504c-13.232 0-24-10.768-24-24s10.768-24 24-24 24 10.768 24 24-10.768 24-24 24z"/><path d="m32 504c-13.232 0-24-10.768-24-24s10.768-24 24-24 24 10.768 24 24-10.768 24-24 24z"/><path d="m352 504c-13.232 0-24-10.768-24-24s10.768-24 24-24 24 10.768 24 24-10.768 24-24 24z"/><path d="m416 504c-13.232 0-24-10.768-24-24s10.768-24 24-24 24 10.768 24 24-10.768 24-24 24z"/><path d="m480 504c-13.232 0-24-10.768-24-24s10.768-24 24-24 24 10.768 24 24-10.768 24-24 24z"/></g></svg>