<svg enable-background="new 0 0 496 496" viewBox="0 0 496 496" xmlns="http://www.w3.org/2000/svg"><path d="m448 320h-400v-240h400z" fill="#b22117"/><path d="m472 48h-448c-13.23 0-24 10.77-24 24v352c0 13.23 10.77 24 24 24h448c13.23 0 24-10.77 24-24v-352c0-13.23-10.77-24-24-24zm8 376c0 4.414-3.594 8-8 8h-448c-4.406 0-8-3.586-8-8v-352c0-4.406 3.594-8 8-8h448c4.406 0 8 3.594 8 8z"/><path d="m328 248.137c0-17.762-11.93-33.578-29.008-38.465l-26.992-7.703v-2.129c9.969-7.512 16-19.328 16-31.832v-14.336c0-21.504-16.008-39.727-36.449-41.504-11.184-.969-22.344 2.801-30.574 10.352-8.25 7.55-12.977 18.304-12.977 29.48v16c0 12.504 6.031 24.328 16 31.832v2.129l-26.992 7.711c-17.078 4.887-29.008 20.703-29.008 38.465v39.863h160zm-16 23.863h-128v-23.863c0-10.664 7.16-20.152 17.406-23.082l38.594-11.024v-23.07l-3.977-2.312c-7.527-4.383-12.023-12.106-12.023-20.649v-16c0-6.703 2.84-13.16 7.793-17.695 5.008-4.602 11.496-6.832 18.383-6.207 12.23 1.062 21.824 12.285 21.824 25.566v14.336c0 8.543-4.496 16.266-12.023 20.648l-3.977 2.313v23.07l38.594 11.023c10.246 2.938 17.406 12.426 17.406 23.083z"/><path d="m32 412.945 73.887-36.945-73.887-36.945zm16-48 22.113 11.055-22.113 11.055z"/><path d="m152 336h16v80h-16z"/><path d="m120 336h16v80h-16z"/><path d="m336 336h-48v32h-104v16h104v32h48v-32h128v-16h-128zm-16 64h-16v-48h16z"/></svg>