<svg enable-background="new 0 0 512 512" viewBox="0 0 512 512" xmlns="http://www.w3.org/2000/svg"><path d="m329.2 350.8v-8.9c2.5-2 4.9-4.3 7.3-6.6 18.6-20.5 30.3-46.3 33.5-73.8 16.7-2.5 31.8-11.5 42.1-25 14.1-19.9 15.3-48.5 3.6-84.3-.7-2.1-2.1-3.8-3.9-5l-5.3-3.6c.8-32.4-10.4-63.9-31.4-88.5-26.1-29.4-66.1-44.2-119.1-44.4-52.9 0-93 15-119.1 44-21 24.6-32.2 56.1-31.4 88.5l-5.3 3.6c-1.8 1.2-3.2 3-3.9 5-11.7 36-10.5 64.4 3.6 84.3 10.2 13.6 25.3 22.6 42.1 25.3 3.2 27.6 15 53.4 33.6 73.9 2.3 2.3 4.7 4.5 7.3 6.6v8.9c-37.2 7.2-185.4 42-182.9 140.8 0 5.4 4.3 9.7 9.7 9.7h492.6c5.4 0 9.7-4.3 9.7-9.7 2.5-98.8-145.7-133.6-182.8-140.8zm-193.1-111c-8.2-2.8-15.4-8-20.5-15l.5.1c-9.7-14.1-10.6-35.6-1.9-63.9l7.1-4.7c3-2 4.6-5.5 4.3-9-1.6-29 7.8-57.5 26.4-79.8 21.9-24.8 57.1-37.2 104.2-37.4s82.3 12.6 104.6 37.4c18.6 22.3 28 50.8 26.4 79.8-.4 3.6 1.3 7 4.3 9l7.1 4.7c8.6 28.2 8 49.7-1.9 63.9-5.2 7-12.4 12.3-20.6 15 11.7-13.3 17.4-30.8 15.8-48.5-1.8-10.6-7.3-20.2-15.6-27.1-4.2-96.9-72.1-107.8-101.4-107.8-6.2 0-12.4.4-18.5 1.4-6.1-.9-12.3-1.4-18.5-1.4-29.1 0-96.9 10.7-101.4 107.8-8.3 6.9-13.9 16.4-15.8 27-2 17.7 3.7 35.2 15.4 48.5zm220.4-79.5c-40.7 2.3-81.1-7.8-115.8-29.1-3.9-2.8-9.3-2.2-12.6 1.3-19.4 20.8-54.8 25.7-71.8 26.7 5.2-68.5 46.7-83.4 81.6-83.4 5.6 0 11.1.4 16.6 1.4 1.3.3 2.6.3 3.9 0 5.5-.9 11-1.4 16.6-1.4 34.6 0 76.3 15.3 81.1 84.4zm-196.8 81.3.4.1c0-2.4-.8-4.7-2.4-6.5-13.3-15.2-19.4-29.1-17.7-40.5.8-6.4 3.9-12.2 8.8-16.4 12.8 0 58.1-2.4 87.2-27.5 32.7 18.8 69.8 28.8 107.6 29.1 6.5 0 13.1 0 20-1.1 4.7 4.1 7.9 9.7 8.7 15.9 1.6 11.2-4.5 25.3-17.7 40.5-1.6 1.8-2.4 4.1-2.4 6.5v5l-56.5 30.3c-11.2-10.6-28.9-10.1-39.5 1.1s-10.1 28.9 1.1 39.5 28.9 10.1 39.5-1.1c4.9-5.2 7.6-12.1 7.6-19.2 0-.9 0-1.7 0-2.6l44.5-23.8c-3.8 19.1-12.8 36.8-26 51.2-17.2 16.5-40.4 25.2-64.2 24h-4.8c-23.8 1.2-47-7.5-64.1-23.9-30.8-30.7-30.1-80.1-30.1-80.6zm125.3 55.6c0 4.8-3.9 8.6-8.6 8.6-4.8 0-8.6-3.9-8.6-8.6 0-4.8 3.9-8.6 8.6-8.6s8.6 3.9 8.6 8.6zm-38.7 184.1h-226.6c7.7-72.8 126-103.2 163-111.1v17.3c0 22 26.7 38.8 63.6 41.6zm-44.2-93.7v-.3-33.1c16.1 7.5 33.7 11.2 51.5 10.9h4.8c17.8.3 35.3-3.4 51.5-10.9v33.4c0 9.2-21 22.5-53.9 22.5s-53.9-13.3-53.9-22.5zm63.5 94v-52.5c36.8-2.5 63.6-19.4 63.6-41.6v-17c37.3 7.8 155 38.2 163 111.1z" fill="#0c0c0c"/></svg>